<?xml version="1.0" encoding="iso-8859-1"?>
<!-- Uploaded to: SVG Repo, www.svgrepo.com, Generator: SVG Repo Mixer Tools -->
<svg fill="#000000" height="800px" width="800px" version="1.1" id="Layer_1" xmlns="http://www.w3.org/2000/svg" xmlns:xlink="http://www.w3.org/1999/xlink" 
	 viewBox="0 0 512.003 512.003" xml:space="preserve">
<g>
	<g>
		<path d="M488.349,74.252c-12.968-2.571-25.571,5.843-28.154,18.812l-1.344,6.759C411.069,37.799,336.582,0,256.002,0
			C154.201,0,62.083,60.286,21.317,153.584c-5.293,12.116,0.236,26.23,12.352,31.524c12.116,5.296,26.232-0.238,31.524-12.352
			C98.338,96.897,173.235,47.883,256.002,47.883c66.27,0,127.469,31.446,166.259,82.914l-14.283-2.841
			c-12.965-2.573-25.571,5.843-28.154,18.812c-2.578,12.968,5.842,25.573,18.81,28.152l67.039,13.334
			c1.55,0.308,3.114,0.46,4.673,0.46c4.697,0,9.334-1.385,13.299-4.035c5.281-3.527,8.945-9.01,10.182-15.236l13.332-67.039
			C509.736,89.434,501.317,76.831,488.349,74.252z"/>
	</g>
</g>
<g>
	<g>
		<path d="M478.333,326.893c-12.121-5.297-26.233,0.235-31.526,12.352c-33.148,75.858-108.041,124.874-190.805,124.874
			c-66.267,0-127.463-31.441-166.249-82.9l14.277,2.841c12.971,2.576,25.571-5.842,28.154-18.81
			c2.581-12.968-5.842-25.573-18.81-28.154l-67.039-13.335c-6.228-1.235-12.691,0.048-17.972,3.575
			c-5.281,3.527-8.943,9.008-10.181,15.235L4.845,409.612c-2.579,12.968,5.842,25.573,18.81,28.154
			c1.577,0.313,3.149,0.464,4.697,0.464c11.189,0,21.188-7.883,23.455-19.274l1.347-6.767
			c47.781,62.018,122.267,99.815,202.848,99.815c101.794,0,193.913-60.286,234.682-153.583
			C495.976,346.301,490.446,332.187,478.333,326.893z"/>
	</g>
</g>
<g>
	<g>
		<path d="M348.864,200.072l-79.805-51.924c-7.941-5.167-18.175-5.165-26.114-0.002l-63.847,41.542
			c-0.01,0.006-0.016,0.011-0.026,0.016l-0.262,0.171l-0.059,0.038l-15.611,10.158c-11.082,7.211-14.221,22.042-7.012,33.124
			c2.989,4.59,7.291,7.795,12.086,9.489v69.18c0.002,13.224,10.719,23.943,23.943,23.943h127.691
			c13.22,0,23.941-10.719,23.941-23.941v-69.183c4.795-1.693,9.096-4.894,12.086-9.486
			C363.087,222.113,359.948,207.282,348.864,200.072z"/>
	</g>
</g>
</svg>